# xmcd
#
# Track frame offsets:
#	150
#	19476
#	37090
#	58032
#	78091
#	97291
#	118324
#	142680
#
# Disc length: 2140 seconds
#
# Revision: 1
# Processed by: cddbd v1.5.2PL0 Copyright (c) Steve Scherf et al.
# Submitted via: audiograbber 1.83.01
#
DISCID=6d085a08
DTITLE=Iwori - Abandon All Plans
DYEAR=2006
DGENRE=Neo-Santana
TTITLE0=Sirens
TTITLE1=River Song
TTITLE2=Daybreak Star
TTITLE3=As Blossoms Fall
TTITLE4=Angel of Faces
TTITLE5=Consequences
TTITLE6=Just Like Fire
TTITLE7=Caesar's Empire
EXTD=All songs written by Micah Charlot 
EXTT0=
EXTT1=
EXTT2=
EXTT3=
EXTT4=
EXTT5=
EXTT6=
EXTT7=
PLAYORDER=
